<?xml version="1.0" encoding="utf-8"?>
<!-- Generator: Adobe Illustrator 22.1.0, SVG Export Plug-In . SVG Version: 6.00 Build 0)  -->
<svg version="1.1" id="Layer_1" xmlns="http://www.w3.org/2000/svg" xmlns:xlink="http://www.w3.org/1999/xlink" x="0px" y="0px"
	 viewBox="0 0 82 82" style="enable-background:new 0 0 82 82;" xml:space="preserve">
<style type="text/css">
	.st0{fill:#FFFFFF;}
</style>
<path class="st0" d="M47.9,69v-7.3H35V69l-16.8,8.4L1.3,69V46.7l16.8-8.4l5.8,2.9l3.9-6.8l-3.2-1.6V10.4L41.5,2l16.8,8.4v22.3
	l-3.2,1.6l3.9,6.8l5.8-2.9l16.8,8.4V69l-16.8,8.4L47.9,69z M66.1,56.1v17.8l13-6.5V49.6L66.1,56.1z M50.5,67.4l13,6.5V56.1l-13-6.5
	v9.6h5.2v2.6h-5.2V67.4z M19.4,56.1v17.8l13-6.5v-5.7h-5.2v-2.6h5.2v-9.6L19.4,56.1z M3.9,67.4l13,6.5V56.1l-13-6.5V67.4z M35,59.2
	h13V46.7l8.7-4.4l-3.9-6.8l-11.3,5.6l-11.3-5.6l-3.9,6.8l8.7,4.4V59.2z M52.1,47.5l12.7,6.3l12.7-6.3l-12.7-6.3L52.1,47.5z
	 M5.5,47.5l12.7,6.3l12.7-6.3l-12.7-6.3L5.5,47.5z M42.8,19.8v17.8l8.7-4.4l-2.7-4.7l2.2-1.3l2.8,4.9l1.9-1V13.3L42.8,19.8z
	 M31.5,33.3l8.7,4.4V19.8l-13-6.5v17.9l2,0.8l2.7-4.8l2.3,1.3L31.5,33.3z M28.8,11.2l12.7,6.3l12.7-6.3L41.5,4.9L28.8,11.2z"/>
<rect x="11.7" y="28.1" class="st0" width="2.6" height="2.6"/>
<rect x="40.2" y="77.3" class="st0" width="2.6" height="2.6"/>
<rect x="66.1" y="28.1" class="st0" width="2.6" height="2.6"/>
</svg>
