<?xml version="1.0" encoding="utf-8"?>
<!-- Generator: Adobe Illustrator 22.1.0, SVG Export Plug-In . SVG Version: 6.00 Build 0)  -->
<svg version="1.1" id="Capa_1" xmlns="http://www.w3.org/2000/svg" xmlns:xlink="http://www.w3.org/1999/xlink" x="0px" y="0px"
	 viewBox="-272 396.2 49.7 49.7" style="enable-background:new -272 396.2 49.7 49.7;" xml:space="preserve">
<style type="text/css">
	.st0{fill:#FFFFFF;}
</style>
<g>
	<g>
		<g>
			<path class="st0" d="M-242.6,417.5c-2.1,0-3.1,1.2-3.6,2v-1.7h-4c0.1,1.1,0,12,0,12h4v-6.7c0-0.4,0-0.7,0.1-1
				c0.3-0.7,0.9-1.5,2.1-1.5c1.4,0,2,1.1,2,2.7v6.4h4h0V423C-238,419.3-240,417.5-242.6,417.5z M-246.3,419.6L-246.3,419.6
				C-246.3,419.6-246.3,419.5-246.3,419.6L-246.3,419.6z"/>
			<rect x="-256.5" y="417.8" class="st0" width="4" height="12"/>
			<path class="st0" d="M-247.2,396.2c-13.7,0-24.8,11.1-24.8,24.8c0,13.7,11.1,24.8,24.8,24.8c13.7,0,24.8-11.1,24.8-24.8
				C-222.3,407.4-233.5,396.2-247.2,396.2z M-234,432.3c0,1.1-0.9,1.9-2,1.9h-22.6c-1.1,0-2-0.9-2-1.9v-22.8c0-1.1,0.9-1.9,2-1.9
				h22.6c1.1,0,2,0.9,2,1.9V432.3z"/>
			<path class="st0" d="M-254.4,412c-1.4,0-2.3,0.9-2.3,2.1c0,1.2,0.9,2.1,2.2,2.1h0c1.4,0,2.3-0.9,2.3-2.1
				C-252.2,412.9-253.1,412-254.4,412z"/>
		</g>
	</g>
</g>
</svg>
