<?xml version="1.0" encoding="utf-8"?>
<!-- Generator: Adobe Illustrator 22.1.0, SVG Export Plug-In . SVG Version: 6.00 Build 0)  -->
<svg version="1.1" id="Layer_1" xmlns="http://www.w3.org/2000/svg" xmlns:xlink="http://www.w3.org/1999/xlink" x="0px" y="0px"
	 viewBox="0 0 185 60" style="enable-background:new 0 0 185 60;" xml:space="preserve">
<style type="text/css">
	.st0{fill:#FFFFFF;}
	.st1{opacity:0.7;}
	.st2{fill:#6CB319;}
</style>
<g>
	<g>
		<path class="st0" d="M12.4,19h12.8V2.7C13.8,2.7,4.1,9.7,0,19.6L4.6,30L0,40.3c4.1,9.9,13.8,16.9,25.2,16.9V44.2h-4.7
			c-0.7,0-1.3-0.6-1.3-1.3l0-9.7c0-0.7-0.6-1.3-1.3-1.3h-5.4c-0.7,0-1.3-0.6-1.3-1.3l0-10.1C11.1,19.6,11.7,19,12.4,19z"/>
		<g class="st1">
			<path class="st0" d="M50.5,19.7C46.4,9.7,36.6,2.7,25.2,2.7V19h13c0.7,0,1.3,0.6,1.3,1.3v5.9c0,0.7-0.6,1.3-1.3,1.3h-9.2
				c-0.7,0-1.3,0.6-1.3,1.3v1.6c0,0.7,0.6,1.3,1.3,1.3h4.5c1,0,1.6,1,1.2,1.9l-1.9,4c-0.2,0.5-0.7,0.8-1.2,0.8h-2.6
				c-0.7,0-1.3,0.6-1.3,1.3v3c0,0.7-0.6,1.3-1.3,1.3h-1.1v13.1c11.4,0,21.1-7,25.2-16.9L45.9,30L50.5,19.7z"/>
		</g>
	</g>
	<g>
		<path class="st0" d="M67.2,24.3h-6.7v-4h18.3v4h-6.7v17h-4.9V24.3z"/>
		<path class="st0" d="M92.2,26.7c1.3,1.2,2,3,2,5.4v9.2h-4.4v-2c-0.9,1.5-2.5,2.2-4.9,2.2c-1.2,0-2.3-0.2-3.2-0.6
			c-0.9-0.4-1.6-1-2.1-1.7c-0.5-0.7-0.7-1.6-0.7-2.5c0-1.5,0.6-2.7,1.7-3.5s2.9-1.3,5.2-1.3h3.7c0-1-0.3-1.8-0.9-2.4
			c-0.6-0.5-1.5-0.8-2.8-0.8c-0.9,0-1.7,0.1-2.5,0.4s-1.5,0.6-2.1,1.1l-1.7-3.3c0.9-0.6,1.9-1.1,3.2-1.4c1.2-0.3,2.5-0.5,3.8-0.5
			C89,25,90.9,25.5,92.2,26.7z M88.2,37.9c0.6-0.4,1.1-0.9,1.3-1.6v-1.6h-3.2c-1.9,0-2.9,0.6-2.9,1.9c0,0.6,0.2,1.1,0.7,1.4
			c0.5,0.3,1.1,0.5,1.9,0.5C86.9,38.4,87.6,38.2,88.2,37.9z"/>
		<path class="st0" d="M108.7,41.3l-3.5-4.9l-3.7,4.9h-5.1l6.2-8.1l-6-8h5.2l3.4,4.7l3.5-4.7h5l-6,7.9l6.2,8.2H108.7z"/>
		<path class="st0" d="M120.2,21.7v9h11.2v1.4h-11.2v9.3h-1.5v-21h14v1.4H120.2z"/>
		<path class="st0" d="M140.5,26.5c1-0.6,2.3-0.9,3.7-0.9V27l-0.4,0c-1.7,0-3.1,0.5-4.1,1.6c-1,1.1-1.5,2.6-1.5,4.5v8.2h-1.5V25.7
			h1.4v3.4C138.7,28,139.4,27.1,140.5,26.5z"/>
		<path class="st0" d="M161.4,33.9h-13.5c0,1.2,0.3,2.3,0.9,3.3c0.6,0.9,1.4,1.7,2.4,2.2c1,0.5,2.1,0.8,3.3,0.8c1,0,2-0.2,2.8-0.6
			c0.9-0.4,1.6-0.9,2.2-1.6l0.9,1c-0.7,0.8-1.5,1.4-2.6,1.9c-1,0.4-2.1,0.7-3.3,0.7c-1.6,0-2.9-0.3-4.2-1c-1.2-0.7-2.2-1.6-2.9-2.8
			c-0.7-1.2-1-2.6-1-4.1c0-1.5,0.3-2.9,1-4.1c0.6-1.2,1.5-2.2,2.7-2.8c1.1-0.7,2.4-1,3.8-1c1.4,0,2.7,0.3,3.8,1
			c1.1,0.7,2,1.6,2.7,2.8c0.6,1.2,1,2.6,1,4.1L161.4,33.9z M151,27.6c-0.9,0.5-1.6,1.2-2.1,2.1c-0.5,0.9-0.8,1.9-0.9,3h12
			c-0.1-1.1-0.4-2.1-0.9-3s-1.2-1.6-2.1-2.1c-0.9-0.5-1.9-0.7-3-0.7S151.9,27.1,151,27.6z"/>
		<path class="st0" d="M179.3,33.9h-13.5c0,1.2,0.3,2.3,0.9,3.3c0.6,0.9,1.4,1.7,2.4,2.2c1,0.5,2.1,0.8,3.3,0.8c1,0,2-0.2,2.8-0.6
			c0.9-0.4,1.6-0.9,2.2-1.6l0.9,1c-0.7,0.8-1.5,1.4-2.6,1.9c-1,0.4-2.1,0.7-3.3,0.7c-1.6,0-2.9-0.3-4.2-1c-1.2-0.7-2.2-1.6-2.9-2.8
			c-0.7-1.2-1-2.6-1-4.1c0-1.5,0.3-2.9,1-4.1c0.6-1.2,1.5-2.2,2.7-2.8c1.1-0.7,2.4-1,3.8-1c1.4,0,2.7,0.3,3.8,1
			c1.1,0.7,2,1.6,2.7,2.8c0.6,1.2,1,2.6,1,4.1L179.3,33.9z M168.9,27.6c-0.9,0.5-1.6,1.2-2.1,2.1c-0.5,0.9-0.8,1.9-0.9,3h12
			c-0.1-1.1-0.4-2.1-0.9-3s-1.2-1.6-2.1-2.1c-0.9-0.5-1.9-0.7-3-0.7S169.7,27.1,168.9,27.6z"/>
	</g>
	<g>
		<path class="st2" d="M126.2,57.3c0-0.4,0-1,0-1.5v-7h1v3.6h0c0.4-0.6,1-1.1,2-1.1c1.4,0,2.5,1.2,2.4,3c0,2.1-1.3,3.1-2.6,3.1
			c-0.8,0-1.5-0.3-1.9-1.1h0l0,1H126.2z M127.3,54.9c0,0.1,0,0.3,0,0.4c0.2,0.7,0.8,1.2,1.6,1.2c1.1,0,1.8-0.9,1.8-2.2
			c0-1.2-0.6-2.2-1.7-2.2c-0.7,0-1.4,0.5-1.6,1.3c0,0.1-0.1,0.3-0.1,0.4V54.9z"/>
		<path class="st2" d="M133.1,48.8h1.1v8.5h-1.1V48.8z"/>
		<path class="st2" d="M141.2,54.3c0,2.1-1.5,3.1-2.9,3.1c-1.6,0-2.8-1.2-2.8-3c0-1.9,1.3-3.1,2.9-3.1
			C140,51.3,141.2,52.5,141.2,54.3z M136.6,54.4c0,1.3,0.7,2.2,1.8,2.2c1,0,1.8-0.9,1.8-2.3c0-1-0.5-2.2-1.7-2.2
			C137.1,52.1,136.6,53.3,136.6,54.4z"/>
		<path class="st2" d="M146.6,57.1c-0.3,0.1-0.9,0.3-1.7,0.3c-1.8,0-2.9-1.2-2.9-3c0-1.8,1.2-3.1,3.1-3.1c0.6,0,1.2,0.2,1.5,0.3
			l-0.2,0.8c-0.3-0.1-0.6-0.3-1.2-0.3c-1.3,0-2.1,1-2.1,2.2c0,1.3,0.9,2.2,2,2.2c0.6,0,1-0.2,1.3-0.3L146.6,57.1z"/>
		<path class="st2" d="M148.9,54.1L148.9,54.1c0.2-0.2,0.4-0.5,0.5-0.7l1.7-2h1.3l-2.2,2.4l2.6,3.4h-1.3l-2-2.8l-0.5,0.6v2.2h-1
			v-8.5h1V54.1z"/>
		<path class="st2" d="M157.6,57.1c-0.3,0.1-0.9,0.3-1.7,0.3c-1.8,0-2.9-1.2-2.9-3c0-1.8,1.2-3.1,3.1-3.1c0.6,0,1.2,0.2,1.5,0.3
			l-0.2,0.8c-0.3-0.1-0.6-0.3-1.2-0.3c-1.3,0-2.1,1-2.1,2.2c0,1.3,0.9,2.2,2,2.2c0.6,0,1-0.2,1.3-0.3L157.6,57.1z"/>
		<path class="st2" d="M158.9,48.8h1.1v3.6h0c0.2-0.3,0.4-0.6,0.8-0.7c0.3-0.2,0.7-0.3,1.1-0.3c0.8,0,2,0.5,2,2.5v3.5h-1.1v-3.3
			c0-0.9-0.3-1.7-1.3-1.7c-0.7,0-1.2,0.5-1.4,1.1c-0.1,0.1-0.1,0.3-0.1,0.5v3.5h-1.1V48.8z"/>
		<path class="st2" d="M168.7,57.3l-0.1-0.7h0c-0.3,0.5-0.9,0.9-1.8,0.9c-1.2,0-1.8-0.8-1.8-1.7c0-1.4,1.2-2.2,3.5-2.2v-0.1
			c0-0.5-0.1-1.3-1.3-1.3c-0.5,0-1.1,0.2-1.5,0.4l-0.2-0.7c0.5-0.3,1.2-0.5,1.9-0.5c1.8,0,2.2,1.2,2.2,2.4v2.2c0,0.5,0,1,0.1,1.4
			H168.7z M168.6,54.3c-1.2,0-2.5,0.2-2.5,1.3c0,0.7,0.5,1,1,1c0.8,0,1.2-0.5,1.4-1c0-0.1,0.1-0.2,0.1-0.3V54.3z"/>
		<path class="st2" d="M172.5,49.8c0,0.4-0.3,0.6-0.7,0.6c-0.4,0-0.6-0.3-0.6-0.6c0-0.4,0.3-0.7,0.7-0.7
			C172.2,49.2,172.5,49.5,172.5,49.8z M171.3,57.3v-5.8h1.1v5.8H171.3z"/>
		<path class="st2" d="M174.1,53c0-0.6,0-1.1,0-1.6h0.9l0.1,1h0c0.3-0.6,1-1.1,1.9-1.1c0.8,0,2.1,0.5,2.1,2.5v3.5H178v-3.3
			c0-0.9-0.3-1.7-1.3-1.7c-0.7,0-1.2,0.5-1.4,1.1c0,0.1-0.1,0.3-0.1,0.5v3.5h-1.1V53z"/>
	</g>
</g>
</svg>
