<?xml version="1.0" encoding="utf-8"?>
<!-- Generator: Adobe Illustrator 22.1.0, SVG Export Plug-In . SVG Version: 6.00 Build 0)  -->
<svg version="1.1" id="Layer_1" xmlns="http://www.w3.org/2000/svg" xmlns:xlink="http://www.w3.org/1999/xlink" x="0px" y="0px"
	 viewBox="0 0 190 60" style="enable-background:new 0 0 190 60;" xml:space="preserve">
<style type="text/css">
	.st0{fill:#FFFFFF;}
	.st1{opacity:0.7;}
	.st2{fill:#6BB244;}
</style>
<g>
	<g>
		<path class="st0" d="M15,18.6h13.3V1.6c-11.9,0-22,7.3-26.3,17.6L6.9,30L2.1,40.8c4.2,10.3,14.4,17.6,26.3,17.6V44.8h-4.9
			c-0.8,0-1.4-0.6-1.4-1.4l0-10.1c0-0.8-0.6-1.4-1.4-1.4H15c-0.8,0-1.4-0.6-1.4-1.4l0-10.6C13.6,19.2,14.3,18.6,15,18.6z"/>
		<g class="st1">
			<path class="st0" d="M54.6,19.3C50.4,8.9,40.2,1.6,28.4,1.6v16.9h13.5c0.8,0,1.4,0.6,1.4,1.4v6.1c0,0.8-0.6,1.4-1.4,1.4h-9.6
				c-0.8,0-1.4,0.6-1.4,1.4v1.7c0,0.8,0.6,1.4,1.4,1.4H37c1,0,1.7,1.1,1.3,2l-2,4.1c-0.2,0.5-0.7,0.8-1.3,0.8h-2.7
				c-0.8,0-1.4,0.6-1.4,1.4v3.1c0,0.8-0.6,1.4-1.4,1.4h-1.2v13.6c11.9,0,22-7.3,26.2-17.6L49.9,30L54.6,19.3z"/>
		</g>
	</g>
	<g>
		<path class="st2" d="M72.1,24.1h-7V20h19v4.1h-7v17.7h-5.1V24.1z"/>
		<path class="st2" d="M98.1,26.6c1.4,1.2,2.1,3.1,2.1,5.6v9.6h-4.6v-2.1c-0.9,1.6-2.6,2.3-5.1,2.3c-1.3,0-2.4-0.2-3.4-0.7
			c-0.9-0.4-1.7-1-2.2-1.8c-0.5-0.8-0.7-1.6-0.7-2.6c0-1.6,0.6-2.8,1.8-3.7c1.2-0.9,3-1.3,5.4-1.3h3.9c0-1.1-0.3-1.9-1-2.4
			c-0.6-0.6-1.6-0.9-2.9-0.9c-0.9,0-1.8,0.1-2.6,0.4c-0.9,0.3-1.6,0.7-2.2,1.1l-1.7-3.4c0.9-0.6,2-1.1,3.3-1.5
			c1.3-0.4,2.6-0.5,3.9-0.5C94.7,24.8,96.7,25.4,98.1,26.6z M93.9,38.2c0.6-0.4,1.1-1,1.4-1.7v-1.7H92c-2,0-3,0.7-3,2
			c0,0.6,0.2,1.1,0.7,1.5c0.5,0.4,1.2,0.5,2,0.5C92.6,38.8,93.3,38.6,93.9,38.2z"/>
		<path class="st2" d="M115.2,41.8l-3.7-5.1l-3.8,5.1h-5.3l6.5-8.5l-6.2-8.3h5.5l3.6,4.9l3.6-4.9h5.2l-6.2,8.2l6.5,8.6H115.2z"/>
		<path class="st0" d="M127.2,21.4v9.3h11.6v1.4h-11.6v9.6h-1.6V20h14.6v1.4H127.2z"/>
		<path class="st0" d="M148.3,26.3c1.1-0.6,2.3-1,3.9-1v1.5l-0.4,0c-1.8,0-3.2,0.6-4.2,1.7c-1,1.1-1.5,2.7-1.5,4.7v8.5h-1.6V25.5
			h1.5v3.6C146.5,27.9,147.2,27,148.3,26.3z"/>
		<path class="st0" d="M170.1,34h-14c0,1.3,0.4,2.4,1,3.4c0.6,1,1.4,1.8,2.4,2.3c1,0.5,2.2,0.8,3.5,0.8c1.1,0,2-0.2,2.9-0.6
			c0.9-0.4,1.7-1,2.3-1.7l0.9,1c-0.7,0.9-1.6,1.5-2.7,2c-1.1,0.5-2.2,0.7-3.5,0.7c-1.6,0-3.1-0.4-4.3-1.1c-1.3-0.7-2.3-1.7-3-2.9
			c-0.7-1.2-1.1-2.7-1.1-4.3c0-1.6,0.3-3,1-4.3c0.7-1.3,1.6-2.2,2.8-2.9c1.2-0.7,2.5-1.1,4-1.1c1.5,0,2.8,0.3,4,1
			c1.2,0.7,2.1,1.7,2.8,2.9c0.7,1.2,1,2.7,1,4.2L170.1,34z M159.3,27.5c-0.9,0.5-1.6,1.2-2.2,2.2c-0.6,0.9-0.9,2-1,3.1h12.5
			c-0.1-1.2-0.4-2.2-0.9-3.1c-0.6-0.9-1.3-1.6-2.2-2.2c-0.9-0.5-1.9-0.8-3.1-0.8C161.2,26.8,160.2,27,159.3,27.5z"/>
		<path class="st0" d="M188.7,34h-14c0,1.3,0.4,2.4,1,3.4c0.6,1,1.4,1.8,2.4,2.3c1,0.5,2.2,0.8,3.5,0.8c1.1,0,2-0.2,2.9-0.6
			c0.9-0.4,1.7-1,2.3-1.7l0.9,1c-0.7,0.9-1.6,1.5-2.7,2c-1.1,0.5-2.2,0.7-3.5,0.7c-1.6,0-3.1-0.4-4.3-1.1c-1.3-0.7-2.3-1.7-3-2.9
			c-0.7-1.2-1.1-2.7-1.1-4.3c0-1.6,0.3-3,1-4.3c0.7-1.3,1.6-2.2,2.8-2.9c1.2-0.7,2.5-1.1,4-1.1c1.5,0,2.8,0.3,4,1
			c1.2,0.7,2.1,1.7,2.8,2.9c0.7,1.2,1,2.7,1,4.2L188.7,34z M177.9,27.5c-0.9,0.5-1.6,1.2-2.2,2.2c-0.6,0.9-0.9,2-1,3.1h12.5
			c-0.1-1.2-0.4-2.2-0.9-3.1c-0.6-0.9-1.3-1.6-2.2-2.2c-0.9-0.5-1.9-0.8-3.1-0.8C179.8,26.8,178.8,27,177.9,27.5z"/>
	</g>
	<g>
		<path class="st2" d="M161.4,54.7c-0.1-1.2-0.1-2.6-0.1-3.6h0c-0.3,1-0.6,2-1.1,3.2l-1.5,4.1h-0.8l-1.4-4c-0.4-1.2-0.7-2.3-1-3.3h0
			c0,1-0.1,2.5-0.2,3.7l-0.2,3.6h-1l0.6-8.4h1.4l1.4,4.1c0.3,1,0.6,2,0.8,2.8h0c0.2-0.8,0.5-1.8,0.9-2.8l1.5-4.1h1.4l0.5,8.4h-1.1
			L161.4,54.7z"/>
		<path class="st2" d="M167.8,58.4l-0.1-0.8h0c-0.3,0.5-1,0.9-1.8,0.9c-1.2,0-1.8-0.9-1.8-1.7c0-1.5,1.3-2.3,3.6-2.2v-0.1
			c0-0.5-0.1-1.4-1.4-1.4c-0.6,0-1.1,0.2-1.6,0.4l-0.2-0.7c0.5-0.3,1.2-0.5,2-0.5c1.8,0,2.3,1.3,2.3,2.5V57c0,0.5,0,1,0.1,1.4H167.8
			z M167.6,55.3c-1.2,0-2.6,0.2-2.6,1.4c0,0.7,0.5,1,1,1c0.8,0,1.3-0.5,1.5-1c0-0.1,0.1-0.2,0.1-0.3V55.3z"/>
		<path class="st2" d="M170.4,54.3c0-0.7,0-1.3,0-1.9h1l0,1.2h0c0.3-0.8,0.9-1.3,1.7-1.3c0.1,0,0.2,0,0.3,0v1c-0.1,0-0.2,0-0.4,0
			c-0.8,0-1.3,0.6-1.5,1.4c0,0.1,0,0.3,0,0.5v3.2h-1.1V54.3z"/>
		<path class="st2" d="M175.7,55.1L175.7,55.1c0.2-0.2,0.4-0.5,0.6-0.7l1.8-2.1h1.3l-2.3,2.5l2.7,3.6h-1.3l-2.1-2.9l-0.6,0.6v2.3
			h-1.1v-8.9h1.1V55.1z"/>
		<path class="st2" d="M181,55.6c0,1.5,1,2.1,2.1,2.1c0.8,0,1.3-0.1,1.7-0.3l0.2,0.8c-0.4,0.2-1,0.4-2,0.4c-1.9,0-3-1.2-3-3
			c0-1.8,1.1-3.3,2.8-3.3c2,0,2.5,1.7,2.5,2.8c0,0.2,0,0.4,0,0.5H181z M184.3,54.8c0-0.7-0.3-1.8-1.5-1.8c-1.1,0-1.6,1-1.7,1.8
			H184.3z"/>
		<path class="st2" d="M188,50.6v1.7h1.6v0.8H188v3.3c0,0.7,0.2,1.2,0.8,1.2c0.3,0,0.5,0,0.6-0.1l0,0.8c-0.2,0.1-0.5,0.1-1,0.1
			c-0.5,0-0.9-0.2-1.2-0.5c-0.3-0.3-0.4-0.9-0.4-1.6v-3.3H186v-0.8h0.9v-1.4L188,50.6z"/>
	</g>
</g>
</svg>
